<svg xmlns="http://www.w3.org/2000/svg" viewBox="0 0 128 128" width="128" height="128">
  <!-- Monochrome version - works in any color -->
  <rect x="24" y="24" width="80" height="80" rx="12" ry="12" 
        fill="none" stroke="currentColor" stroke-width="3" 
        stroke-linecap="round" stroke-linejoin="round"/>
  <rect x="36" y="36" width="56" height="56" rx="8" ry="8" 
        fill="none" stroke="currentColor" stroke-width="1.5"/>
  <circle cx="64" cy="64" r="8" fill="currentColor" opacity="0.9"/>
  <g stroke="currentColor" stroke-width="2.5" stroke-linecap="round" opacity="0.8">
    <line x1="24" y1="34" x2="24" y2="44" />
    <line x1="24" y1="34" x2="34" y2="34" />
    <line x1="94" y1="34" x2="104" y2="34" />
    <line x1="104" y1="34" x2="104" y2="44" />
    <line x1="24" y1="84" x2="24" y2="94" />
    <line x1="24" y1="94" x2="34" y2="94" />
    <line x1="94" y1="94" x2="104" y2="94" />
    <line x1="104" y1="84" x2="104" y2="94" />
  </g>
  <g stroke="currentColor" stroke-width="1.5" stroke-linecap="round" opacity="0.6">
    <line x1="64" y1="44" x2="64" y2="50" />
    <line x1="64" y1="78" x2="64" y2="84" />
    <line x1="44" y1="64" x2="50" y2="64" />
    <line x1="78" y1="64" x2="84" y2="64" />
  </g>
</svg>